<?xml version="1.0" standalone="no"?>
<!DOCTYPE svg PUBLIC "-//W3C//DTD SVG 20010904//EN"
 "http://www.w3.org/TR/2001/REC-SVG-20010904/DTD/svg10.dtd">
<svg version="1.0" xmlns="http://www.w3.org/2000/svg"
 width="497.000000pt" height="158.000000pt" viewBox="0 0 497.000000 158.000000"
 preserveAspectRatio="xMidYMid meet">

<g transform="translate(0.000000,158.000000) scale(0.100000,-0.100000)"
fill="#000000" stroke="none">
<path d="M1046 1397 c-16 -12 -17 -23 -11 -100 l7 -87 58 0 58 0 11 75 c14 95
14 91 -5 109 -19 20 -93 21 -118 3z"/>
<path d="M949 1327 c-23 -17 -69 -87 -69 -103 0 -10 15 -14 55 -14 61 0 60 -2
49 84 -7 49 -10 52 -35 33z"/>
<path d="M1225 1303 c-3 -21 -8 -50 -10 -65 -4 -28 -4 -28 55 -28 l60 0 -15
38 c-16 36 -61 92 -76 92 -5 0 -11 -17 -14 -37z"/>
<path d="M548 1249 c-19 -11 -23 -45 -12 -112 l7 -38 46 3 46 3 8 65 c7 56 6
66 -9 77 -21 15 -62 16 -86 2z"/>
<path d="M1576 1247 c-16 -12 -18 -22 -12 -80 l8 -67 47 0 48 0 7 67 c6 58 4
69 -10 80 -23 17 -65 17 -88 0z"/>
<path d="M441 1165 c-43 -49 -41 -65 9 -65 l40 0 -7 48 c-3 26 -7 48 -8 50 -1
1 -16 -13 -34 -33z"/>
<path d="M696 1178 c-3 -13 -6 -35 -6 -50 0 -26 3 -28 40 -28 22 0 40 4 40 8
0 10 -58 92 -64 92 -2 0 -6 -10 -10 -22z"/>
<path d="M1471 1163 c-42 -51 -40 -63 10 -63 l40 0 -7 48 c-3 26 -8 48 -9 50
-2 2 -17 -14 -34 -35z"/>
<path d="M1726 1169 c-12 -63 -10 -69 34 -69 22 0 40 2 40 5 0 14 -30 61 -48
78 -19 17 -20 17 -26 -14z"/>
<path d="M2404 1184 c3 -9 6 -18 6 -20 0 -2 16 -4 36 -4 l37 0 -5 -85 c-5
-105 -21 -129 -83 -123 -22 3 -48 8 -57 12 -13 6 -20 3 -25 -9 -10 -27 24 -45
83 -45 95 0 123 47 124 208 l0 82 -61 0 c-52 0 -60 -2 -55 -16z"/>
<path d="M3290 1055 c0 -138 1 -145 20 -145 18 0 20 7 20 59 0 67 5 71 76 71
38 0 44 3 44 21 0 19 -5 21 -60 17 l-60 -3 0 43 0 42 80 0 c73 0 80 2 80 20 0
19 -7 20 -100 20 l-100 0 0 -145z"/>
<path d="M845 1147 c-13 -10 -16 -21 -11 -41 l6 -26 263 2 262 3 3 29 c2 16
-2 32 -10 37 -7 5 -121 9 -254 9 -185 0 -244 -3 -259 -13z"/>
<path d="M2654 1110 c-34 -13 -64 -59 -64 -97 0 -26 8 -43 34 -69 30 -30 40
-34 86 -34 46 0 56 4 86 34 35 35 42 64 24 110 -19 52 -106 81 -166 56z m110
-51 c32 -25 33 -59 4 -86 -32 -29 -53 -34 -88 -22 -55 20 -67 74 -24 108 15
12 39 21 54 21 15 0 39 -9 54 -21z"/>
<path d="M3862 1104 c-26 -18 -30 -65 -6 -85 9 -8 40 -16 68 -19 42 -4 51 -8
51 -25 0 -32 -48 -43 -91 -20 -27 15 -37 16 -47 6 -20 -21 27 -51 80 -51 70 0
103 23 103 73 0 23 -7 31 -35 43 -19 7 -51 14 -70 14 -29 0 -36 3 -33 18 3 13
14 17 55 17 59 0 76 11 49 31 -26 19 -96 18 -124 -2z"/>
<path d="M4274 1111 c-34 -15 -64 -60 -64 -98 0 -26 8 -43 34 -69 30 -30 40
-34 86 -34 46 0 56 4 86 34 44 44 46 92 6 137 -23 26 -37 32 -78 35 -27 2 -59
0 -70 -5z m110 -52 c64 -50 -3 -136 -84 -107 -55 19 -67 74 -24 107 15 12 39
21 54 21 15 0 39 -9 54 -21z"/>
<path d="M2910 1010 l0 -100 73 0 c94 0 122 16 113 69 -3 20 -6 50 -6 68 1 50
-21 63 -106 63 l-74 0 0 -100z m124 64 c30 -12 18 -34 -18 -34 -19 0 -41 -3
-50 -6 -12 -5 -16 0 -16 20 0 23 4 26 34 26 19 0 41 -3 50 -6z m21 -99 c0 -17
-8 -20 -52 -23 -47 -3 -53 -1 -53 17 0 24 14 30 65 28 33 -2 40 -6 40 -22z"/>
<path d="M3562 1029 c4 -98 21 -119 98 -119 77 0 94 21 98 119 4 76 3 81 -17
81 -18 0 -20 -7 -23 -72 -3 -68 -5 -74 -30 -86 -23 -11 -33 -11 -55 0 -26 12
-28 18 -31 86 -3 65 -5 72 -23 72 -20 0 -21 -5 -17 -81z"/>
<path d="M4090 1010 c0 -93 1 -100 20 -100 19 0 20 7 20 100 0 93 -1 100 -20
100 -19 0 -20 -7 -20 -100z"/>
<path d="M4518 1010 c3 -90 5 -100 22 -100 17 0 19 9 22 67 l3 66 55 -66 c79
-96 90 -92 90 33 0 82 -3 100 -15 100 -12 0 -15 -14 -15 -65 0 -36 -3 -65 -7
-65 -5 0 -32 29 -62 65 -35 43 -61 65 -75 65 -20 0 -21 -4 -18 -100z"/>
<path d="M377 1044 c-4 -4 -7 -20 -7 -36 l0 -28 215 0 c190 0 216 2 222 16 3
9 2 24 -4 33 -9 14 -39 16 -215 19 -112 1 -207 -1 -211 -4z"/>
<path d="M1407 1044 c-4 -4 -7 -20 -7 -36 l0 -28 218 2 217 3 0 30 0 30 -211
3 c-115 1 -213 -1 -217 -4z"/>
<path d="M904 994 c9 -36 51 -99 78 -118 60 -43 179 -44 239 -3 27 18 88 114
89 140 0 4 -93 7 -206 7 l-206 0 6 -26z"/>
<path d="M430 909 c0 -24 43 -80 73 -96 40 -21 121 -23 165 -4 28 12 82 80 82
104 0 4 -72 7 -160 7 -112 0 -160 -3 -160 -11z"/>
<path d="M1460 909 c0 -24 43 -80 73 -96 40 -21 121 -23 165 -4 28 12 82 80
82 104 0 4 -72 7 -160 7 -112 0 -160 -3 -160 -11z"/>
<path d="M3362 673 c3 -93 5 -108 21 -111 13 -3 17 3 17 27 0 39 13 39 40 1
12 -16 30 -30 41 -30 25 0 24 6 -7 47 -26 34 -25 42 9 81 l20 22 -22 0 c-13 0
-32 -11 -43 -25 -30 -38 -38 -31 -38 35 0 54 -2 60 -20 60 -20 0 -21 -5 -18
-107z"/>
<path d="M3720 670 c0 -103 1 -110 20 -110 17 0 20 7 20 49 0 51 18 78 44 68
10 -4 16 -24 18 -59 2 -41 7 -54 21 -56 15 -3 17 5 17 61 0 76 -13 92 -65 84
l-35 -6 0 40 c0 32 -3 39 -20 39 -19 0 -20 -7 -20 -110z"/>
<path d="M4153 764 c-7 -18 17 -38 31 -24 11 11 1 40 -14 40 -6 0 -13 -7 -17
-16z"/>
<path d="M4420 670 c0 -91 3 -110 15 -110 8 0 15 4 15 9 0 5 13 4 30 -2 25
-10 34 -8 57 9 62 46 31 141 -43 132 -33 -4 -34 -3 -34 34 0 31 -4 38 -20 38
-19 0 -20 -7 -20 -110z m98 -2 c18 -18 14 -56 -7 -68 -15 -7 -25 -5 -42 9 -21
16 -22 22 -11 45 12 28 40 34 60 14z"/>
<path d="M2302 668 c3 -88 6 -103 20 -106 15 -3 18 7 20 74 l3 78 46 -75 c36
-59 50 -74 70 -74 24 0 24 1 27 103 l3 102 -26 0 c-24 0 -25 -2 -25 -72 l0
-72 -43 69 c-34 55 -49 71 -71 73 l-27 3 3 -103z"/>
<path d="M2720 740 c0 -11 -7 -23 -15 -26 -8 -4 -15 -12 -15 -20 0 -8 7 -14
15 -14 11 0 15 -12 15 -50 0 -44 3 -52 25 -62 20 -9 28 -9 38 1 9 10 8 14 -5
22 -23 13 -26 89 -3 89 8 0 15 7 15 15 0 8 -6 15 -14 15 -8 0 -16 10 -18 22
-4 30 -38 37 -38 8z"/>
<path d="M3620 735 c-5 -14 -14 -25 -20 -25 -5 0 -10 -7 -10 -15 0 -8 7 -15
15 -15 11 0 15 -12 15 -50 0 -45 3 -52 26 -60 14 -6 30 -10 35 -10 15 0 10 27
-6 34 -10 3 -15 19 -15 46 0 29 4 40 15 40 8 0 15 7 15 15 0 8 -7 15 -15 15
-9 0 -15 9 -15 25 0 16 -6 25 -15 25 -9 0 -20 -11 -25 -25z"/>
<path d="M891 703 c-110 -57 -190 -151 -230 -271 -12 -34 -21 -80 -21 -102 l0
-40 85 0 85 0 0 98 c0 98 9 126 36 115 11 -4 14 -30 14 -109 l0 -104 240 0
240 0 0 99 c0 72 4 102 14 110 11 9 18 8 30 -4 12 -13 16 -37 16 -111 l0 -94
85 0 85 0 0 28 c0 15 -7 51 -15 81 -34 130 -119 238 -234 300 l-63 33 -50 -23
c-67 -31 -146 -32 -209 -1 -25 12 -47 22 -50 22 -3 0 -29 -12 -58 -27z"/>
<path d="M2545 690 c-23 -25 -25 -84 -4 -105 9 -9 31 -18 51 -21 29 -5 40 -2
59 17 21 21 22 24 6 27 -10 2 -24 -2 -32 -8 -17 -14 -51 -5 -59 15 -4 12 5 15
49 15 51 0 55 2 55 23 0 54 -87 79 -125 37z m85 -21 c0 -5 -13 -9 -30 -9 -32
0 -41 16 -12 22 21 5 42 -1 42 -13z"/>
<path d="M2826 636 c30 -89 54 -101 74 -38 18 56 26 58 42 10 22 -65 47 -59
75 17 27 75 28 85 4 85 -13 0 -22 -12 -31 -46 -14 -50 -22 -48 -40 9 -16 50
-37 45 -60 -13 -18 -44 -18 -44 -28 -20 -5 14 -11 34 -13 45 -3 11 -14 21 -26
23 l-22 3 25 -75z"/>
<path d="M3080 690 c-28 -28 -26 -75 6 -107 21 -21 32 -24 62 -19 67 10 91 69
51 120 -26 33 -88 37 -119 6z m90 -25 c15 -18 6 -61 -16 -69 -37 -14 -65 25
-48 68 8 20 48 21 64 1z"/>
<path d="M3250 635 c0 -68 2 -75 20 -75 17 0 20 7 20 50 0 44 3 52 25 62 26
12 34 38 12 38 -7 0 -18 -5 -25 -12 -9 -9 -12 -9 -12 0 0 7 -9 12 -20 12 -18
0 -20 -7 -20 -75z"/>
<path d="M3910 683 c-57 -73 42 -164 110 -101 29 27 12 36 -32 17 -27 -11 -32
-10 -45 7 -13 18 -11 19 42 22 44 2 55 6 55 20 0 63 -89 86 -130 35z m67 -21
c-34 -4 -48 5 -27 18 8 5 22 4 34 -3 20 -11 20 -12 -7 -15z"/>
<path d="M4150 625 c0 -67 -3 -87 -15 -91 -24 -10 -17 -34 10 -34 35 0 45 27
45 124 0 79 -2 86 -20 86 -18 0 -20 -7 -20 -85z"/>
<path d="M4241 684 c-25 -32 -26 -46 -6 -84 34 -66 137 -43 143 33 4 49 -24
77 -77 77 -31 0 -44 -6 -60 -26z m97 -41 c5 -55 -61 -70 -74 -17 -8 32 13 56
45 52 21 -2 27 -9 29 -35z"/>
<path d="M4604 696 c-11 -29 2 -51 40 -69 28 -14 36 -21 28 -29 -9 -9 -18 -8
-37 2 -27 15 -41 9 -32 -13 8 -20 51 -29 82 -17 21 8 26 16 23 37 -2 21 -13
32 -42 46 -28 14 -36 21 -28 29 9 9 18 8 37 -2 29 -16 43 -7 25 15 -16 20 -89
20 -96 1z"/>
<path d="M413 679 c-107 -53 -192 -173 -201 -285 l-4 -54 65 0 66 0 3 87 c3
77 5 88 22 91 28 6 36 -15 36 -100 l0 -78 93 0 92 0 11 58 c16 80 59 165 116
228 l50 54 -25 11 c-21 10 -33 8 -72 -11 -53 -25 -127 -23 -167 5 -29 19 -35
19 -85 -6z"/>
<path d="M1461 691 c-11 -7 -4 -20 33 -63 55 -63 99 -150 116 -230 l11 -58 94
0 94 0 3 87 c3 80 5 88 23 88 18 0 20 -8 23 -87 l3 -88 71 0 71 0 -6 50 c-14
116 -110 248 -214 294 -41 18 -42 18 -85 -3 -55 -26 -100 -26 -157 -1 -48 22
-60 24 -80 11z"/>
</g>
</svg>
