<?xml version="1.0" standalone="no"?>
<!DOCTYPE svg PUBLIC "-//W3C//DTD SVG 20010904//EN"
 "http://www.w3.org/TR/2001/REC-SVG-20010904/DTD/svg10.dtd">
<svg version="1.0" xmlns="http://www.w3.org/2000/svg"
 width="599.000000pt" height="420.000000pt" viewBox="0 0 599.000000 420.000000"
 preserveAspectRatio="xMidYMid meet">

<g transform="translate(0.000000,420.000000) scale(0.100000,-0.100000)"
fill="#000000" stroke="none">
<path d="M3003 3575 c-39 -16 -40 -32 -21 -176 l12 -89 76 0 76 0 12 98 c18
147 18 151 -23 168 -43 18 -90 17 -132 -1z"/>
<path d="M2857 3470 c-38 -33 -79 -95 -92 -137 -6 -23 -5 -23 75 -23 l82 0 -7
64 c-4 35 -10 79 -14 97 l-6 32 -38 -33z"/>
<path d="M3236 3457 c-3 -23 -8 -66 -12 -94 l-7 -53 82 0 c81 0 82 0 75 23
-17 56 -76 136 -114 157 -15 8 -19 4 -24 -33z"/>
<path d="M2300 3362 c-21 -17 -21 -20 -9 -105 l12 -87 62 0 c71 0 67 -6 80
116 6 49 4 63 -10 77 -23 23 -106 23 -135 -1z"/>
<path d="M3718 3373 c-24 -6 -31 -35 -23 -96 14 -114 9 -107 79 -107 l63 0 12
87 c12 85 12 88 -9 105 -21 17 -80 22 -122 11z"/>
<path d="M2178 3273 c-23 -25 -58 -84 -58 -98 0 -3 25 -5 56 -5 l55 0 -6 58
c-4 31 -10 60 -14 65 -4 4 -19 -5 -33 -20z"/>
<path d="M2515 3264 c-3 -22 -9 -51 -11 -66 -6 -28 -5 -28 50 -28 32 0 56 4
56 10 0 20 -28 65 -58 94 l-31 28 -6 -38z"/>
<path d="M3583 3268 c-32 -34 -53 -69 -53 -87 0 -7 22 -11 54 -11 l54 0 -6 48
c-9 83 -13 87 -49 50z"/>
<path d="M3927 3293 c-2 -4 -8 -34 -11 -65 l-7 -58 55 0 c31 0 56 2 56 5 0 31
-82 136 -93 118z"/>
<path d="M2712 3228 c-18 -18 -14 -63 6 -81 17 -15 56 -17 354 -17 312 0 336
1 351 18 20 22 22 63 5 80 -17 17 -699 17 -716 0z"/>
<path d="M2069 3069 c-8 -16 -8 -28 0 -45 l11 -24 283 0 c297 0 307 1 307 45
0 44 -10 45 -307 45 -278 0 -282 0 -294 -21z"/>
<path d="M3482 3078 c-7 -7 -12 -21 -12 -33 0 -44 10 -45 307 -45 l283 0 11
24 c8 17 8 29 0 45 -12 21 -16 21 -294 21 -207 0 -286 -3 -295 -12z"/>
<path d="M2805 3003 c64 -145 124 -188 265 -188 141 0 201 43 265 188 l25 57
-290 0 -290 0 25 -57z"/>
<path d="M2172 2858 c43 -82 99 -113 198 -112 90 0 144 30 188 104 17 30 32
58 32 62 0 4 -101 8 -226 8 l-225 0 33 -62z"/>
<path d="M3550 2912 c0 -4 15 -32 33 -62 43 -74 97 -104 187 -104 99 -1 155
30 198 112 l33 62 -225 0 c-125 0 -226 -4 -226 -8z"/>
<path d="M2784 2625 c-198 -99 -318 -277 -349 -517 l-6 -48 120 0 120 0 3 143
3 142 30 0 30 0 3 -142 3 -143 329 0 329 0 3 143 3 142 30 0 30 0 3 -142 3
-143 120 0 120 0 -6 48 c-12 95 -28 149 -65 227 -65 133 -155 226 -286 290
l-74 36 -64 -31 c-56 -28 -74 -32 -146 -32 -72 0 -90 4 -145 31 -34 17 -64 31
-66 31 -2 0 -36 -16 -75 -35z"/>
<path d="M2136 2595 c-158 -79 -263 -227 -285 -402 l-7 -63 93 0 93 0 0 109
c0 88 3 113 16 126 9 9 23 14 31 11 8 -3 17 -6 19 -6 2 0 4 -54 4 -120 l0
-120 130 0 c96 0 131 3 134 13 2 6 11 46 21 87 23 101 84 215 156 294 32 35
59 66 59 69 0 3 -15 10 -34 17 -29 9 -40 8 -81 -15 -38 -20 -62 -25 -115 -25
-65 0 -132 18 -145 40 -10 16 -36 11 -89 -15z"/>
<path d="M3570 2609 c-13 -6 -26 -12 -28 -14 -3 -2 22 -33 54 -68 91 -100 174
-276 174 -369 l0 -28 135 0 135 0 0 119 c0 99 3 120 16 125 21 8 20 8 38 -10
13 -12 16 -39 16 -125 l0 -109 93 0 93 0 -7 63 c-23 183 -138 338 -307 412
-35 15 -47 16 -60 7 -37 -26 -70 -36 -142 -39 -66 -4 -81 -1 -123 21 -53 29
-52 29 -87 15z"/>
<path d="M1562 1785 c9 -21 18 -25 55 -25 l45 0 -4 -121 -3 -121 -34 -30 c-30
-27 -39 -30 -79 -24 -25 3 -56 13 -68 21 -21 14 -24 13 -34 -4 -16 -31 -12
-38 30 -55 54 -21 127 -20 170 2 59 32 73 75 78 239 l5 143 -87 0 -86 0 12
-25z"/>
<path d="M2770 1610 l0 -200 25 0 c25 0 25 1 25 80 0 95 5 100 104 100 l66 0
0 31 0 32 -85 -6 -86 -5 3 57 3 56 113 3 c112 3 112 3 112 27 l0 25 -140 0
-140 0 0 -200z"/>
<path d="M1905 1686 c-54 -23 -85 -70 -85 -128 0 -92 60 -148 157 -148 92 0
163 63 163 145 0 107 -127 178 -235 131z m142 -62 c73 -46 39 -148 -54 -161
-95 -13 -156 72 -102 141 34 44 103 53 156 20z"/>
<path d="M3564 1686 c-34 -15 -44 -33 -44 -76 0 -49 24 -64 122 -75 70 -8 88
-25 59 -54 -29 -29 -99 -29 -135 0 -25 20 -29 20 -43 6 -52 -52 105 -102 192
-61 41 19 62 64 49 102 -12 34 -66 62 -121 62 -51 0 -73 8 -73 26 0 27 47 39
97 26 40 -11 48 -11 64 4 19 17 18 17 -2 32 -29 20 -127 26 -165 8z"/>
<path d="M4135 1693 c-67 -17 -110 -82 -103 -155 13 -133 200 -177 291 -69 33
39 37 115 10 162 -31 53 -122 81 -198 62z m92 -53 c24 0 73 -56 73 -84 0 -68
-101 -117 -168 -82 -53 27 -64 107 -19 145 20 16 68 30 85 25 8 -2 20 -4 29
-4z"/>
<path d="M2250 1549 l0 -141 103 4 c113 4 141 15 157 62 8 22 6 36 -5 59 -10
19 -13 43 -9 68 5 32 2 42 -19 63 -25 24 -32 26 -127 26 l-100 0 0 -141z m190
76 c19 -22 3 -35 -45 -35 -24 0 -55 -4 -69 -10 -25 -9 -26 -8 -26 25 l0 35 64
0 c43 0 67 -5 76 -15z m15 -125 c0 -24 -2 -25 -77 -28 -77 -3 -78 -3 -78 22 0
31 11 35 90 33 62 -2 65 -3 65 -27z"/>
<path d="M3142 1579 l3 -111 33 -29 c29 -26 40 -29 98 -29 62 0 68 2 100 34
l34 34 0 106 0 106 -25 0 c-25 0 -25 -1 -25 -82 0 -46 -3 -93 -6 -104 -11 -41
-90 -58 -132 -28 -20 14 -22 23 -22 115 l0 99 -31 0 -31 0 4 -111z"/>
<path d="M3870 1550 l0 -140 25 0 25 0 0 140 0 140 -25 0 -25 0 0 -140z"/>
<path d="M4440 1671 c5 -11 10 -74 10 -141 l0 -121 28 3 c27 3 27 3 30 91 l3
88 76 -91 c64 -76 81 -90 103 -88 l25 3 3 138 3 137 -31 0 -30 0 0 -96 0 -96
-82 96 c-74 85 -87 96 -116 96 -29 0 -32 -2 -22 -19z"/>
<path d="M2870 1129 l0 -150 28 3 c24 3 28 8 32 48 l5 45 34 -47 c29 -41 39
-48 68 -48 l34 0 -20 28 c-11 15 -29 38 -40 52 -27 33 -26 41 9 75 37 35 38
45 5 45 -16 0 -37 -14 -60 -37 l-34 -38 -1 88 0 87 -30 0 -30 0 0 -151z"/>
<path d="M3360 1129 l0 -150 28 3 c26 3 27 5 32 78 5 74 5 75 34 78 38 5 46
-10 46 -90 0 -66 1 -68 25 -68 25 0 25 1 25 83 0 54 -5 90 -13 101 -15 20 -58
25 -94 13 -22 -8 -23 -6 -23 47 0 56 0 56 -30 56 l-30 0 0 -151z"/>
<path d="M3951 1267 c-17 -21 -3 -49 23 -45 15 2 21 10 21 28 0 28 -26 38 -44
17z"/>
<path d="M4310 1130 l0 -150 25 0 c16 0 25 6 25 16 0 14 2 14 22 0 52 -37 124
-2 134 64 14 86 -57 151 -126 117 l-30 -15 0 59 c0 56 -1 59 -25 59 l-25 0 0
-150z m148 -23 c12 -24 11 -32 -3 -53 -22 -34 -41 -39 -70 -20 -28 18 -35 72
-13 94 22 22 71 10 86 -21z"/>
<path d="M1424 1257 c-2 -7 -3 -71 -2 -143 l3 -129 27 -3 27 -3 3 101 3 101
60 -98 c54 -88 64 -98 93 -101 l32 -3 0 145 0 146 -25 0 c-24 0 -24 -1 -27
-102 l-3 -103 -63 103 c-58 92 -67 102 -93 102 -16 0 -32 -6 -35 -13z"/>
<path d="M1990 1221 c0 -21 -6 -32 -20 -36 -11 -3 -20 -15 -20 -26 0 -12 7
-19 20 -19 18 0 20 -7 20 -64 0 -70 8 -82 58 -92 29 -6 32 -4 32 19 0 16 -7
26 -20 30 -17 4 -20 14 -20 56 0 44 3 51 20 51 13 0 20 7 20 19 0 10 -9 21
-20 24 -15 4 -20 14 -20 36 0 26 -4 31 -25 31 -21 0 -25 -5 -25 -29z"/>
<path d="M3225 1219 c-4 -19 -15 -33 -26 -36 -26 -7 -25 -43 1 -43 18 0 20 -7
20 -58 0 -32 6 -66 13 -76 18 -24 80 -27 85 -3 2 10 -4 20 -15 24 -26 10 -33
23 -33 70 0 36 3 42 22 45 31 4 36 36 6 40 -18 2 -24 10 -26 36 -4 44 -38 45
-47 1z"/>
<path d="M1784 1180 c-56 -22 -73 -116 -31 -165 32 -38 101 -45 140 -15 15 12
27 25 27 30 0 17 -40 21 -56 6 -8 -9 -23 -16 -33 -16 -17 0 -51 29 -51 43 0 4
34 7 75 7 84 0 86 3 60 65 -20 49 -76 68 -131 45z m76 -45 c18 -22 9 -27 -41
-23 -41 3 -42 4 -25 21 22 21 49 22 66 2z"/>
<path d="M2523 1179 c-42 -12 -63 -44 -63 -95 0 -55 28 -90 79 -99 46 -8 104
13 120 43 16 30 13 94 -4 119 -13 18 -75 45 -95 42 -3 0 -19 -5 -37 -10z m77
-49 c11 -11 20 -31 20 -45 0 -28 -32 -65 -55 -65 -23 0 -55 37 -55 65 0 28 32
65 55 65 8 0 24 -9 35 -20z"/>
<path d="M2797 1174 c-16 -9 -27 -10 -27 -4 0 5 -11 10 -25 10 l-25 0 0 -100
0 -100 25 0 c24 0 25 2 25 63 0 67 17 97 53 97 10 0 17 8 17 19 0 28 -11 31
-43 15z"/>
<path d="M3655 1181 c-63 -26 -81 -119 -33 -168 36 -36 104 -42 141 -13 32 26
34 36 6 45 -13 4 -27 1 -38 -9 -22 -20 -45 -20 -65 0 -28 27 -18 34 53 34 39
0 72 4 75 9 4 5 0 26 -6 47 -18 55 -75 78 -133 55z m73 -43 c21 -21 13 -28
-33 -28 -25 0 -45 4 -45 8 0 15 24 32 45 32 12 0 26 -5 33 -12z"/>
<path d="M4113 1179 c-42 -12 -63 -44 -63 -95 0 -55 28 -90 79 -99 46 -8 104
13 120 43 16 30 13 89 -5 117 -13 20 -72 48 -94 44 -3 0 -19 -5 -37 -10z m77
-49 c11 -11 20 -31 20 -45 0 -26 -31 -65 -53 -65 -30 0 -57 31 -57 65 0 24 7
39 22 49 30 21 44 20 68 -4z"/>
<path d="M4593 1180 c-27 -11 -46 -45 -38 -69 5 -17 19 -26 78 -50 34 -13 36
-41 3 -41 -13 0 -29 6 -35 14 -11 13 -51 11 -51 -3 0 -23 31 -44 72 -48 41 -5
50 -2 73 21 40 40 18 90 -47 103 -37 7 -56 30 -33 39 10 4 26 2 36 -4 22 -14
59 -16 59 -4 0 31 -77 59 -117 42z"/>
<path d="M2110 1173 c0 -5 14 -50 31 -101 29 -88 33 -93 57 -90 21 3 29 12 45
61 10 31 22 57 27 57 5 0 17 -26 27 -57 16 -49 24 -58 45 -61 24 -3 28 2 57
90 17 51 31 96 31 101 0 4 -11 7 -24 7 -21 0 -27 -8 -42 -52 -24 -77 -25 -77
-48 -12 -18 50 -25 59 -45 59 -20 0 -28 -10 -46 -59 -24 -65 -25 -64 -49 12
-15 44 -21 52 -42 52 -13 0 -24 -3 -24 -7z"/>
<path d="M3950 1081 c0 -107 -10 -151 -35 -151 -9 0 -15 -9 -15 -21 0 -19 4
-21 32 -15 58 11 63 24 66 161 l4 125 -26 0 -26 0 0 -99z"/>
</g>
</svg>
